<svg width="56" height="56" viewBox="0 0 56 56" fill="none" xmlns="http://www.w3.org/2000/svg">
<rect width="56" height="56" rx="28" fill="#EBEBEB"/>
<path d="M33.5629 17.0046L30.7856 17C27.6655 17 25.6491 19.1251 25.6491 22.4142V24.9106H22.8567C22.6154 24.9106 22.42 25.1115 22.42 25.3594V28.9763C22.42 29.2241 22.6156 29.4249 22.8567 29.4249H25.6491V38.5514C25.6491 38.7993 25.8445 39 26.0858 39H29.7291C29.9704 39 30.1658 38.799 30.1658 38.5514V29.4249H33.4308C33.6721 29.4249 33.8675 29.2241 33.8675 28.9763L33.8688 25.3594C33.8688 25.2404 33.8227 25.1264 33.7409 25.0422C33.6592 24.9579 33.5477 24.9106 33.4319 24.9106H30.1658V22.7944C30.1658 21.7773 30.4017 21.2609 31.6916 21.2609L33.5625 21.2603C33.8035 21.2603 33.9989 21.0593 33.9989 20.8117V17.4532C33.9989 17.2058 33.8038 17.005 33.5629 17.0046Z" fill="#989898"/>
</svg>
