<svg width="56" height="56" viewBox="0 0 56 56" fill="none" xmlns="http://www.w3.org/2000/svg">
<rect width="56" height="56" rx="28" fill="#EBEBEB"/>
<path fill-rule="evenodd" clip-rule="evenodd" d="M18 28C18 23.8086 18 21.7129 19.0504 20.2672C19.3896 19.8003 19.8003 19.3896 20.2672 19.0504C21.7129 18 23.8086 18 28 18C32.1914 18 34.2871 18 35.7328 19.0504C36.1997 19.3896 36.6104 19.8003 36.9496 20.2672C38 21.7129 38 23.8086 38 28C38 32.1914 38 34.2871 36.9496 35.7328C36.6104 36.1997 36.1997 36.6104 35.7328 36.9496C34.2871 38 32.1914 38 28 38C23.8086 38 21.7129 38 20.2672 36.9496C19.8003 36.6104 19.3896 36.1997 19.0504 35.7328C18 34.2871 18 32.1914 18 28ZM28 22.7059C25.0763 22.7059 22.7059 25.0763 22.7059 28C22.7059 30.9237 25.0763 33.2941 28 33.2941C30.9237 33.2941 33.2941 30.9237 33.2941 28C33.2941 25.0763 30.9237 22.7059 28 22.7059ZM28 31.3088C26.1762 31.3088 24.6912 29.8238 24.6912 28C24.6912 26.1749 26.1762 24.6912 28 24.6912C29.8238 24.6912 31.3088 26.1749 31.3088 28C31.3088 29.8238 29.8238 31.3088 28 31.3088ZM34.3966 22.3088C34.3966 22.6984 34.0808 23.0143 33.6912 23.0143C33.3016 23.0143 32.9857 22.6984 32.9857 22.3088C32.9857 21.9192 33.3016 21.6034 33.6912 21.6034C34.0808 21.6034 34.3966 21.9192 34.3966 22.3088Z" fill="#989898"/>
</svg>
