<svg width="56" height="56" viewBox="0 0 56 56" fill="none" xmlns="http://www.w3.org/2000/svg">
<rect width="56" height="56" rx="28" fill="#EBEBEB"/>
<path d="M38.5 21.7725C37.7271 22.1004 36.8978 22.3228 36.0264 22.4221C36.9161 21.9119 37.5972 21.1028 37.92 20.1415C37.0854 20.614 36.1642 20.957 35.1826 21.143C34.3966 20.3401 33.2785 19.84 32.0384 19.84C29.6593 19.84 27.7303 21.687 27.7303 23.9638C27.7303 24.2867 27.7683 24.6021 27.8418 24.9037C24.262 24.7315 21.0877 23.0893 18.9631 20.5938C18.5918 21.202 18.3805 21.9106 18.3805 22.6671C18.3805 24.0983 19.1416 25.3611 20.2964 26.0999C19.5904 26.0772 18.9264 25.8913 18.3451 25.5822V25.6337C18.3451 27.6315 19.8306 29.2989 21.8002 29.6784C21.4394 29.7714 21.0588 29.8229 20.6651 29.8229C20.387 29.8229 20.1179 29.7965 19.8542 29.7462C20.4027 31.386 21.9931 32.5784 23.8776 32.6111C22.4039 33.7168 20.5457 34.374 18.5275 34.374C18.1798 34.374 17.8372 34.3539 17.5 34.3174C19.4067 35.4898 21.6704 36.1733 24.1033 36.1733C32.028 36.1733 36.3597 29.8882 36.3597 24.4375L36.3453 23.9035C37.1917 23.3255 37.9239 22.5992 38.5 21.7725Z" fill="#989898"/>
</svg>
